<svg id="visual" viewBox="0 0 900 600" width="900" height="600" xmlns="http://www.w3.org/2000/svg" xmlns:xlink="http://www.w3.org/1999/xlink" version="1.1"><rect width="900" height="600" fill="#fff"></rect><g><g transform="translate(100 234)"><path d="M0 -54.2L34.9 -41.6L53.4 -9.4L47 27.1L18.6 51L-18.6 51L-47 27.1L-53.4 -9.4L-34.9 -41.6Z" fill="#f17700"></path></g><g transform="translate(78 476)"><path d="M0 -22L14.1 -16.9L21.7 -3.8L19.1 11L7.5 20.7L-7.5 20.7L-19.1 11L-21.7 -3.8L-14.1 -16.9Z" fill="#f17700"></path></g><g transform="translate(815 10)"><path d="M0 -27L17.4 -20.7L26.6 -4.7L23.4 13.5L9.2 25.4L-9.2 25.4L-23.4 13.5L-26.6 -4.7L-17.4 -20.7Z" fill="#f17700"></path></g><g transform="translate(767 222)"><path d="M0 -34L21.9 -26L33.5 -5.9L29.4 17L11.6 31.9L-11.6 31.9L-29.4 17L-33.5 -5.9L-21.9 -26Z" fill="#f17700"></path></g><g transform="translate(372 410)"><path d="M0 -9L5.8 -6.9L8.9 -1.6L7.8 4.5L3.1 8.5L-3.1 8.5L-7.8 4.5L-8.9 -1.6L-5.8 -6.9Z" fill="#f17700"></path></g><g transform="translate(370 131)"><path d="M0 -20L12.9 -15.3L19.7 -3.5L17.3 10L6.8 18.8L-6.8 18.8L-17.3 10L-19.7 -3.5L-12.9 -15.3Z" fill="#f17700"></path></g><g transform="translate(307 291)"><path d="M0 -32L20.6 -24.5L31.5 -5.6L27.7 16L10.9 30.1L-10.9 30.1L-27.7 16L-31.5 -5.6L-20.6 -24.5Z" fill="#f17700"></path></g><g transform="translate(495 367)"><path d="M0 -30L19.3 -23L29.5 -5.2L26 15L10.3 28.2L-10.3 28.2L-26 15L-29.5 -5.2L-19.3 -23Z" fill="#f17700"></path></g><g transform="translate(660 479)"><path d="M0 -48L30.9 -36.8L47.3 -8.3L41.6 24L16.4 45.1L-16.4 45.1L-41.6 24L-47.3 -8.3L-30.9 -36.8Z" fill="#f17700"></path></g><g transform="translate(888 329)"><path d="M0 -23L14.8 -17.6L22.7 -4L19.9 11.5L7.9 21.6L-7.9 21.6L-19.9 11.5L-22.7 -4L-14.8 -17.6Z" fill="#f17700"></path></g><g transform="translate(731 80)"><path d="M0 -26L16.7 -19.9L25.6 -4.5L22.5 13L8.9 24.4L-8.9 24.4L-22.5 13L-25.6 -4.5L-16.7 -19.9Z" fill="#f17700"></path></g><g transform="translate(106 61)"><path d="M0 -16L10.3 -12.3L15.8 -2.8L13.9 8L5.5 15L-5.5 15L-13.9 8L-15.8 -2.8L-10.3 -12.3Z" fill="#f17700"></path></g><g transform="translate(863 445)"><path d="M0 -41L26.4 -31.4L40.4 -7.1L35.5 20.5L14 38.5L-14 38.5L-35.5 20.5L-40.4 -7.1L-26.4 -31.4Z" fill="#f17700"></path></g><g transform="translate(515 550)"><path d="M0 -12L7.7 -9.2L11.8 -2.1L10.4 6L4.1 11.3L-4.1 11.3L-10.4 6L-11.8 -2.1L-7.7 -9.2Z" fill="#f17700"></path></g><g transform="translate(32 360)"><path d="M0 -48L30.9 -36.8L47.3 -8.3L41.6 24L16.4 45.1L-16.4 45.1L-41.6 24L-47.3 -8.3L-30.9 -36.8Z" fill="#f17700"></path></g><g transform="translate(591 246)"><path d="M0 -10L6.4 -7.7L9.8 -1.7L8.7 5L3.4 9.4L-3.4 9.4L-8.7 5L-9.8 -1.7L-6.4 -7.7Z" fill="#f17700"></path></g><g transform="translate(406 536)"><path d="M0 -36L23.1 -27.6L35.5 -6.3L31.2 18L12.3 33.8L-12.3 33.8L-31.2 18L-35.5 -6.3L-23.1 -27.6Z" fill="#f17700"></path></g><g transform="translate(263 489)"><path d="M0 -17L10.9 -13L16.7 -3L14.7 8.5L5.8 16L-5.8 16L-14.7 8.5L-16.7 -3L-10.9 -13Z" fill="#f17700"></path></g><g transform="translate(205 130)"><path d="M0 -43L27.6 -32.9L42.3 -7.5L37.2 21.5L14.7 40.4L-14.7 40.4L-37.2 21.5L-42.3 -7.5L-27.6 -32.9Z" fill="#f17700"></path></g><g transform="translate(530 88)"><path d="M0 -51L32.8 -39.1L50.2 -8.9L44.2 25.5L17.4 47.9L-17.4 47.9L-44.2 25.5L-50.2 -8.9L-32.8 -39.1Z" fill="#f17700"></path></g></g></svg>