<svg id="visual" viewBox="0 0 900 600" width="900" height="600" xmlns="http://www.w3.org/2000/svg" xmlns:xlink="http://www.w3.org/1999/xlink" version="1.1"><rect width="900" height="600" fill="#f0f0f0"></rect><g><g transform="translate(553 400)"><path d="M108.1 -87.7C131.3 -57.1 135.2 -12.7 127 31.3C118.8 75.3 98.5 118.8 63.8 137.4C29.2 155.9 -19.8 149.5 -59.2 128.4C-98.5 107.3 -128.2 71.7 -137.6 31.2C-147.1 -9.3 -136.3 -54.7 -109.9 -85.9C-83.6 -117.2 -41.8 -134.3 0.3 -134.5C42.5 -134.8 84.9 -118.2 108.1 -87.7Z" fill="#F7760E"></path></g><g transform="translate(121 28)"><path d="M22.8 -18.1C28 -11.6 29.7 -2.2 28.2 7.2C26.6 16.6 21.9 26.1 14 30.4C6.1 34.8 -5 34.1 -13.7 29.5C-22.4 24.9 -28.7 16.4 -30.2 7.6C-31.6 -1.3 -28.3 -10.6 -22.4 -17.2C-16.6 -23.9 -8.3 -27.8 0.2 -28C8.8 -28.2 17.6 -24.6 22.8 -18.1Z" fill="#F7760E"></path></g><g transform="translate(118 568)"><path d="M105.6 -90.1C127.5 -56.9 129.2 -13.5 120.9 29.5C112.6 72.5 94.2 115 60.8 134.1C27.5 153.1 -21 148.6 -57.8 127.9C-94.6 107.1 -119.7 70.1 -127.1 30.9C-134.5 -8.2 -124.1 -49.5 -100 -83.2C-75.9 -117 -37.9 -143.2 2 -144.8C41.9 -146.4 83.8 -123.3 105.6 -90.1Z" fill="#F7760E"></path></g><g transform="translate(774 80)"><path d="M119.5 -93.4C147 -60.9 156 -11.6 144.4 30.6C132.9 72.8 100.9 108 63.6 122.2C26.2 136.5 -16.5 129.8 -51.7 111.3C-86.9 92.9 -114.5 62.6 -127.2 24.1C-140 -14.5 -138 -61.5 -114.3 -93.2C-90.6 -124.9 -45.3 -141.4 0.3 -141.7C46 -142 92 -126 119.5 -93.4Z" fill="#F7760E"></path></g><g transform="translate(891 539)"><path d="M91.1 -71.3C113.4 -44.7 123.5 -7.1 114.5 23.6C105.4 54.3 77.3 78.2 46.5 90.7C15.7 103.3 -17.6 104.6 -48.3 92.7C-79 80.9 -106.9 55.8 -115.6 24.5C-124.3 -6.9 -113.7 -44.6 -91.2 -71.2C-68.8 -97.9 -34.4 -113.5 0 -113.5C34.4 -113.5 68.8 -97.9 91.1 -71.3Z" fill="#F7760E"></path></g></g></svg>